<svg width="1032" height="125" viewBox="0 0 1032 125" fill="none" xmlns="http://www.w3.org/2000/svg">
<path d="M0.589844 99.22V77.29L53.9698 2.99999H88.8198L36.9698 77.29L20.9898 72.53H113.98V99.22H0.589844ZM63.4898 122V99.22L64.5098 72.53V52.3H96.2999V122H63.4898Z" fill="white"/>
<path d="M173.343 124.38C163.143 124.38 154.076 121.943 146.143 117.07C138.323 112.197 132.146 105.17 127.613 95.99C123.08 86.81 120.813 75.6467 120.813 62.5C120.813 49.3533 123.08 38.19 127.613 29.01C132.146 19.83 138.323 12.8033 146.143 7.93C154.076 3.05666 163.143 0.619995 173.343 0.619995C183.43 0.619995 192.383 3.05666 200.203 7.93C208.136 12.8033 214.37 19.83 218.903 29.01C223.436 38.19 225.703 49.3533 225.703 62.5C225.703 75.6467 223.436 86.81 218.903 95.99C214.37 105.17 208.136 112.197 200.203 117.07C192.383 121.943 183.43 124.38 173.343 124.38ZM173.343 96.84C176.97 96.84 180.143 95.7067 182.863 93.44C185.696 91.1733 187.906 87.5467 189.493 82.56C191.08 77.46 191.873 70.7733 191.873 62.5C191.873 54.1133 191.08 47.4267 189.493 42.44C187.906 37.4533 185.696 33.8267 182.863 31.56C180.143 29.2933 176.97 28.16 173.343 28.16C169.716 28.16 166.486 29.2933 163.653 31.56C160.933 33.8267 158.723 37.4533 157.023 42.44C155.436 47.4267 154.643 54.1133 154.643 62.5C154.643 70.7733 155.436 77.46 157.023 82.56C158.723 87.5467 160.933 91.1733 163.653 93.44C166.486 95.7067 169.716 96.84 173.343 96.84Z" fill="white"/>
<path d="M236 99.22V77.29L289.38 2.99999H324.23L272.38 77.29L256.4 72.53H349.39V99.22H236ZM298.9 122V99.22L299.92 72.53V52.3H331.71V122H298.9Z" fill="white"/>
<path d="M442.756 49.07H498.006V74.23H442.756V49.07ZM445.136 95.99H507.356V122H411.816V2.99999H505.146V29.01H445.136V95.99Z" fill="white"/>
<path d="M526.035 122V2.99999H580.435C591.315 2.99999 600.665 4.75666 608.485 8.27C616.418 11.7833 622.538 16.8833 626.845 23.57C631.151 30.1433 633.305 37.9633 633.305 47.03C633.305 55.9833 631.151 63.7467 626.845 70.32C622.538 76.78 616.418 81.7667 608.485 85.28C600.665 88.68 591.315 90.38 580.435 90.38H544.735L559.695 76.27V122H526.035ZM599.645 122L570.065 78.65H605.935L635.685 122H599.645ZM559.695 79.84L544.735 64.37H578.395C585.421 64.37 590.635 62.84 594.035 59.78C597.548 56.72 599.305 52.47 599.305 47.03C599.305 41.4767 597.548 37.17 594.035 34.11C590.635 31.05 585.421 29.52 578.395 29.52H544.735L559.695 14.05V79.84Z" fill="white"/>
<path d="M651.874 122V2.99999H706.274C717.154 2.99999 726.504 4.75666 734.324 8.27C742.258 11.7833 748.378 16.8833 752.684 23.57C756.991 30.1433 759.144 37.9633 759.144 47.03C759.144 55.9833 756.991 63.7467 752.684 70.32C748.378 76.78 742.258 81.7667 734.324 85.28C726.504 88.68 717.154 90.38 706.274 90.38H670.574L685.534 76.27V122H651.874ZM725.484 122L695.904 78.65H731.774L761.524 122H725.484ZM685.534 79.84L670.574 64.37H704.234C711.261 64.37 716.474 62.84 719.874 59.78C723.388 56.72 725.144 52.47 725.144 47.03C725.144 41.4767 723.388 37.17 719.874 34.11C716.474 31.05 711.261 29.52 704.234 29.52H670.574L685.534 14.05V79.84Z" fill="white"/>
<path d="M837.724 124.38C828.204 124.38 819.421 122.85 811.374 119.79C803.328 116.73 796.301 112.423 790.294 106.87C784.401 101.203 779.811 94.63 776.524 87.15C773.238 79.67 771.594 71.4533 771.594 62.5C771.594 53.5467 773.238 45.33 776.524 37.85C779.811 30.37 784.401 23.8533 790.294 18.3C796.301 12.6333 803.328 8.27 811.374 5.21C819.421 2.15 828.204 0.619995 837.724 0.619995C847.358 0.619995 856.141 2.15 864.074 5.21C872.121 8.27 879.091 12.6333 884.984 18.3C890.878 23.8533 895.468 30.37 898.754 37.85C902.154 45.33 903.854 53.5467 903.854 62.5C903.854 71.4533 902.154 79.7267 898.754 87.32C895.468 94.8 890.878 101.317 884.984 106.87C879.091 112.423 872.121 116.73 864.074 119.79C856.141 122.85 847.358 124.38 837.724 124.38ZM837.724 96.5C842.258 96.5 846.451 95.7067 850.304 94.12C854.271 92.5333 857.671 90.2667 860.504 87.32C863.451 84.26 865.718 80.6333 867.304 76.44C869.004 72.2467 869.854 67.6 869.854 62.5C869.854 57.2867 869.004 52.64 867.304 48.56C865.718 44.3667 863.451 40.7967 860.504 37.85C857.671 34.79 854.271 32.4667 850.304 30.88C846.451 29.2933 842.258 28.5 837.724 28.5C833.191 28.5 828.941 29.2933 824.974 30.88C821.121 32.4667 817.721 34.79 814.774 37.85C811.941 40.7967 809.674 44.3667 807.974 48.56C806.388 52.64 805.594 57.2867 805.594 62.5C805.594 67.6 806.388 72.2467 807.974 76.44C809.674 80.6333 811.941 84.26 814.774 87.32C817.721 90.2667 821.121 92.5333 824.974 94.12C828.941 95.7067 833.191 96.5 837.724 96.5Z" fill="white"/>
<path d="M921.484 122V2.99999H975.884C986.764 2.99999 996.114 4.75666 1003.93 8.27C1011.87 11.7833 1017.99 16.8833 1022.29 23.57C1026.6 30.1433 1028.75 37.9633 1028.75 47.03C1028.75 55.9833 1026.6 63.7467 1022.29 70.32C1017.99 76.78 1011.87 81.7667 1003.93 85.28C996.114 88.68 986.764 90.38 975.884 90.38H940.184L955.144 76.27V122H921.484ZM995.094 122L965.514 78.65H1001.38L1031.13 122H995.094ZM955.144 79.84L940.184 64.37H973.844C980.87 64.37 986.084 62.84 989.484 59.78C992.997 56.72 994.754 52.47 994.754 47.03C994.754 41.4767 992.997 37.17 989.484 34.11C986.084 31.05 980.87 29.52 973.844 29.52H940.184L955.144 14.05V79.84Z" fill="white"/>
</svg>
