<svg width="27" height="23" viewBox="0 0 27 23" fill="none" xmlns="http://www.w3.org/2000/svg">
<path d="M13.364 21.6412L13.3611 21.6428C13.2965 21.6768 13.2238 21.6949 13.1494 21.6949C13.0749 21.6949 13.0022 21.6768 12.9376 21.6428L12.9347 21.6412C12.6919 21.5153 9.55341 19.8382 6.48327 17.2027C3.38503 14.543 0.500147 11.0292 0.5 7.2395C0.502096 5.48355 1.21455 3.79803 2.48441 2.55328C3.75461 1.30819 5.47885 0.606063 7.27939 0.604004C9.56149 0.604083 11.5318 1.56385 12.7524 3.1574L13.1494 3.67561L13.5463 3.1574C14.7669 1.56385 16.7372 0.604083 19.0193 0.604004C20.8199 0.606063 22.5441 1.30819 23.8143 2.55328C25.0842 3.7981 25.7967 5.48373 25.7987 7.23978C25.7984 11.0293 22.9136 14.5431 19.8154 17.2027C16.7453 19.8382 13.6068 21.5153 13.364 21.6412ZM13.5943 22.085C13.4575 22.1572 13.3047 22.1949 13.1494 22.1949C12.994 22.1949 12.8412 22.1572 12.7044 22.085H13.5943Z" fill="#D9D9D9" stroke="white"/>
</svg>
