<svg width="23" height="26" viewBox="0 0 23 26" fill="none" xmlns="http://www.w3.org/2000/svg">
<path d="M2.19906 1.91897L2.19935 1.91867C2.81013 1.2899 3.62381 0.947935 4.90254 0.771036C6.19714 0.591943 7.89197 0.59082 10.2205 0.59082H12.6751C15.0036 0.59082 16.6985 0.591943 17.9931 0.771036C19.2718 0.947935 20.0855 1.2899 20.6962 1.91867L20.6965 1.91897C21.3097 2.54916 21.6448 3.39188 21.8177 4.71395C21.9922 6.04899 21.9933 7.79563 21.9933 10.1895V15.2389C21.9933 17.6328 21.9922 19.3794 21.8177 20.7144C21.6448 22.0365 21.3097 22.8792 20.6965 23.5094L20.6962 23.5097C20.0855 24.1385 19.2718 24.4805 17.9931 24.6574C16.6985 24.8365 15.0036 24.8376 12.6751 24.8376H10.2205C7.89197 24.8376 6.19714 24.8365 4.90254 24.6574C3.62381 24.4805 2.81013 24.1385 2.19935 23.5097L2.19906 23.5094C1.58585 22.8792 1.25079 22.0365 1.07792 20.7144C0.903349 19.3794 0.902344 17.6328 0.902344 15.2389V10.1895C0.902344 7.79563 0.903349 6.04899 1.07792 4.71395C1.25079 3.39188 1.58585 2.54916 2.19906 1.91897ZM6.53871 8.74277C6.15736 8.74277 5.79458 8.89872 5.52935 9.17153C5.26458 9.44386 5.11825 9.81029 5.11825 10.1895C5.11825 10.5688 5.26458 10.9352 5.52935 11.2075C5.79458 11.4803 6.15736 11.6363 6.53871 11.6363H16.3569C16.7382 11.6363 17.101 11.4803 17.3662 11.2075C17.631 10.9352 17.7773 10.5688 17.7773 10.1895C17.7773 9.81029 17.631 9.44386 17.3662 9.17153C17.101 8.89872 16.7382 8.74277 16.3569 8.74277H6.53871ZM6.53871 13.7921C6.15736 13.7921 5.79458 13.9481 5.52935 14.2209C5.26458 14.4932 5.11825 14.8596 5.11825 15.2389C5.11825 15.6181 5.26458 15.9845 5.52935 16.2569C5.79458 16.5297 6.15736 16.6856 6.53871 16.6856H12.6751C13.0564 16.6856 13.4192 16.5297 13.6844 16.2569C13.9492 15.9845 14.0955 15.6181 14.0955 15.2389C14.0955 14.8596 13.9492 14.4932 13.6844 14.2209C13.4192 13.9481 13.0564 13.7921 12.6751 13.7921H6.53871Z" stroke="white"/>
</svg>
