<svg width="16" height="16" viewBox="0 0 16 16" fill="none" xmlns="http://www.w3.org/2000/svg">
<path d="M8 0C3.58187 0 0 3.58187 0 8C0 12.4181 3.58187 16 8 16C12.4181 16 16 12.4181 16 8C16 3.58187 12.4181 0 8 0ZM8.84773 1.9688L9.22773 2.4312L9.8064 2.21013L9.45947 2.71333L9.83547 3.172L9.23013 3.0352L8.87227 3.54187L8.85787 2.9448L8.26213 2.79787L8.84987 2.57227L8.84773 1.9688ZM7.48427 8.52453L5.3776 7.04853L3.27067 8.52453L4.06613 6.12347L1.96853 4.5912H4.59067L5.37733 2.2312L6.18773 4.5912H8.7864L6.6888 6.12347L7.48427 8.52453ZM9.80613 9.59413L9.22427 9.37733L8.84773 9.83573L8.84987 9.232L8.26213 9.00587L8.85787 8.85947L8.8728 8.2624L9.23013 8.7688L9.83547 8.63227L9.456 9.09467L9.80613 9.59413ZM10.2939 7.4008L10.1656 8L9.91093 7.42827L9.31093 7.47493L9.75947 7.0736L9.51867 6.5024L10.04 6.8232L10.5011 6.42667L10.3723 7.03147L10.8848 7.348L10.2939 7.4008ZM10.2808 5.0552L10.0888 5.64L9.90853 5.04453L9.31093 5.024L9.79653 4.67227L9.62533 4.06693L10.1091 4.4496L10.5877 4.10453L10.4043 4.6832L10.884 5.0632L10.2808 5.0552Z" fill="white"/>
</svg>
