<svg width="16" height="16" viewBox="0 0 16 16" fill="none" xmlns="http://www.w3.org/2000/svg">
<path d="M8 0C12.4153 0 16 3.58467 16 8C16 12.4153 12.4153 16 8 16C3.58467 16 0 12.4153 0 8C0 3.58467 3.58467 0 8 0ZM2.16333 11.6927C2.7862 12.6772 3.64797 13.4881 4.66846 14.0501C5.68896 14.612 6.83502 14.9067 8 14.9067C10.454 14.9067 12.6113 13.624 13.8367 11.6927L8 9.46867L2.16333 11.6927ZM9.272 7.26533L14.1167 11.2087C14.6373 10.2194 14.9085 9.11792 14.9067 8C14.9067 4.282 11.962 1.246 8.28 1.09867L9.272 7.26533ZM7.72 1.09867C4.038 1.246 1.09333 4.282 1.09333 8C1.09333 9.158 1.37867 10.2493 1.88333 11.2087L6.728 7.26533L7.72 1.09867Z" fill="white"/>
</svg>
