<svg width="16" height="30" viewBox="0 0 16 30" fill="none" xmlns="http://www.w3.org/2000/svg">
<path fill-rule="evenodd" clip-rule="evenodd" d="M5.93606 14.7599C6.48915 14.2886 7.18691 14.0208 7.9133 14.0012C8.6397 13.9815 9.35093 14.2111 9.92873 14.6517L10.0639 14.7599L10.363 15.0144C10.5807 15.2003 10.8445 15.3239 11.1265 15.3724L11.2681 15.3898L11.6602 15.4217C12.3866 15.4796 13.0711 15.7852 13.5992 16.2873C14.1273 16.7893 14.4671 17.4575 14.5617 18.18L14.5784 18.3391L14.6102 18.732C14.6327 19.017 14.7316 19.2907 14.8965 19.5242L14.984 19.6371L15.2401 19.9362C15.7114 20.4893 15.9792 21.1871 15.9988 21.9135C16.0185 22.6399 15.7889 23.3512 15.3483 23.929L15.2401 24.0642L14.9848 24.3632C14.799 24.5809 14.6753 24.8447 14.6269 25.1268L14.6094 25.2684L14.5784 25.6605C14.5204 26.3869 14.2149 27.0714 13.7128 27.5995C13.2107 28.1276 12.5426 28.4674 11.8201 28.562L11.6602 28.5787L11.2681 28.6105C10.9831 28.6331 10.7095 28.732 10.4759 28.8969L10.363 28.9851L10.0631 29.2397C9.51015 29.7111 8.81243 29.979 8.08604 29.9988C7.35965 30.0186 6.64836 29.7892 6.07047 29.3486L5.93606 29.2405L5.637 28.9851C5.41932 28.7993 5.15554 28.6757 4.87347 28.6272L4.73189 28.6105L4.33978 28.5787C3.61341 28.5208 2.92895 28.2152 2.40083 27.7131C1.8727 27.211 1.53294 26.5429 1.43833 25.8204L1.42163 25.6613L1.38982 25.2684C1.36729 24.9834 1.26838 24.7097 1.10349 24.4762L1.0152 24.3632L0.759896 24.0634C0.2886 23.5103 0.0208467 22.8125 0.00116761 22.0861C-0.0185115 21.3597 0.211069 20.6484 0.651728 20.0706L0.759896 19.9362L1.01441 19.6371C1.20023 19.4195 1.32388 19.1557 1.37232 18.8736L1.38982 18.732L1.42163 18.3399C1.47959 17.6135 1.78514 16.929 2.2872 16.4009C2.78926 15.8727 3.4574 15.533 4.17992 15.4384L4.33899 15.4217L4.73189 15.3898C5.01688 15.3673 5.29053 15.2684 5.52406 15.1035L5.637 15.0152L5.93606 14.7599ZM9.98838 22.7956C9.67197 22.7956 9.36852 22.9213 9.14478 23.145C8.92105 23.3687 8.79535 23.6722 8.79535 23.9886C8.79535 24.305 8.92105 24.6085 9.14478 24.8322C9.36852 25.056 9.67197 25.1817 9.98838 25.1817C10.3048 25.1817 10.6082 25.056 10.832 24.8322C11.0557 24.6085 11.1814 24.305 11.1814 23.9886C11.1814 23.6722 11.0557 23.3687 10.832 23.145C10.6082 22.9213 10.3048 22.7956 9.98838 22.7956ZM9.82375 19.0517L5.05162 23.824C4.97566 23.8973 4.91507 23.9851 4.87338 24.0822C4.8317 24.1792 4.80976 24.2836 4.80884 24.3892C4.80792 24.4948 4.82805 24.5995 4.86804 24.6973C4.90803 24.795 4.96709 24.8838 5.04177 24.9585C5.11644 25.0332 5.20525 25.0922 5.30299 25.1322C5.40074 25.1722 5.50547 25.1923 5.61108 25.1914C5.71668 25.1905 5.82105 25.1686 5.91809 25.1269C6.01512 25.0852 6.10289 25.0246 6.17625 24.9486L10.9484 20.1764C11.0933 20.0264 11.1734 19.8255 11.1716 19.6169C11.1698 19.4084 11.0862 19.2089 10.9387 19.0614C10.7912 18.914 10.5917 18.8303 10.3832 18.8285C10.1747 18.8267 9.97375 18.9069 9.82375 19.0517ZM6.01162 18.8187C5.6952 18.8187 5.39175 18.9444 5.16802 19.1681C4.94428 19.3919 4.81859 19.6953 4.81859 20.0118C4.81859 20.3282 4.94428 20.6316 5.16802 20.8554C5.39175 21.0791 5.6952 21.2048 6.01162 21.2048C6.32803 21.2048 6.63148 21.0791 6.85522 20.8554C7.07895 20.6316 7.20465 20.3282 7.20465 20.0118C7.20465 19.6953 7.07895 19.3919 6.85522 19.1681C6.63148 18.9444 6.32803 18.8187 6.01162 18.8187Z" fill="white"/>
</svg>
