<svg width="16" height="16" viewBox="0 0 16 16" fill="none" xmlns="http://www.w3.org/2000/svg">
<path d="M0 9.56778C0.0574235 9.36831 0.0846241 9.16279 0.154137 8.96634C0.320363 8.50091 0.710238 8.0657 1.11825 7.90552C1.14545 7.99014 1.09709 8.0657 1.09709 8.14428C1.09105 8.47371 1.24518 8.72758 1.52928 8.83336C1.83453 8.94519 2.12467 8.85452 2.33019 8.58251C2.35134 8.55229 2.36041 8.48882 2.41481 8.50998C2.46014 8.52811 2.44503 8.58251 2.44503 8.6218C2.46619 9.52244 2.48734 10.4201 2.51152 11.3207C2.51455 11.4446 2.48734 11.5534 2.42992 11.6622C2.32112 11.8677 2.20929 12.0763 2.1156 12.2909C2.05818 12.4208 1.9796 12.442 1.85569 12.4087C0.891575 12.1397 0.232716 11.5685 0.0302229 10.55C0.021156 10.5107 0.00906687 10.4775 0 10.4412C0 10.1511 0 9.85792 0 9.56778Z" fill="white"/>
<path d="M15.9969 7.86325C15.9969 8.69135 15.9939 9.51644 15.9999 10.3445C15.9999 10.4987 15.9606 10.5531 15.8004 10.5501C15.2715 10.541 14.7396 10.5501 14.2077 10.544C14.0747 10.541 14.0233 10.5742 14.0263 10.7163C14.0324 11.1092 14.0263 11.1092 13.6335 11.1092C12.0467 11.1092 10.46 11.1092 8.87334 11.1092C8.64667 11.1092 8.64969 11.1092 8.64667 10.8855C8.64365 10.4926 8.69201 10.5501 8.30515 10.547C7.82763 10.544 7.34709 10.541 6.86956 10.5501C6.73054 10.5531 6.67312 10.5138 6.67614 10.3657C6.68218 9.72498 6.67916 9.08727 6.67916 8.44655C6.67916 8.36495 6.66405 8.2773 6.78796 8.25614C6.97232 8.22592 7.05695 8.25917 7.10228 8.39215C7.19597 8.6702 7.31989 8.93011 7.52238 9.15074C7.90319 9.56782 8.48045 9.48924 8.80685 9.22025C8.98819 9.07216 9.03655 8.86967 9.00632 8.643C8.99726 8.57651 8.99726 8.50699 8.97912 8.44353C8.92774 8.27125 9.01841 8.2501 9.15744 8.25312C9.34482 8.25917 9.5322 8.24708 9.71958 8.25614C9.86465 8.26521 9.95835 8.21383 10.046 8.09596C10.7139 7.18021 11.3939 6.27352 12.0619 5.35474C12.1646 5.21572 12.2704 5.15527 12.4457 5.15527C13.5428 5.16434 14.6399 5.1583 15.737 5.1583C15.9969 5.1583 15.9969 5.1583 15.9969 5.40915C15.9969 6.22819 15.9969 7.04723 15.9969 7.86325ZM13.2708 8.25312C13.6516 8.25312 14.0294 8.2501 14.4102 8.25614C14.528 8.25917 14.5764 8.21988 14.5734 8.09596C14.5673 7.65471 14.5673 7.21345 14.5734 6.76918C14.5764 6.64526 14.5341 6.60597 14.4132 6.609C14.0233 6.61504 13.6335 6.61202 13.2436 6.609C13.1529 6.609 13.0894 6.63317 13.035 6.71175C12.7177 7.18021 12.3973 7.64866 12.08 8.11712C12.0588 8.15036 12.0135 8.18361 12.0347 8.22592C12.0558 8.27125 12.1102 8.25312 12.1495 8.25312C12.5212 8.25312 12.896 8.25312 13.2708 8.25312Z" fill="white"/>
<path d="M11.2006 15.0442C9.98863 15.0442 8.77669 15.017 7.56476 15.0563C6.86963 15.0775 6.1473 14.4972 6.12312 13.7537C6.10801 13.3548 6.09592 12.9528 6.13824 12.5539C6.17148 12.2546 6.32864 12.0461 6.5674 11.8829C6.86963 11.6774 7.21417 11.6351 7.56476 11.6351C9.99468 11.6321 12.4246 11.6321 14.8515 11.6351C14.9754 11.6351 15.1023 11.6411 15.2232 11.6623C15.6917 11.7378 15.9879 12.0824 15.9939 12.5599C15.9969 13.0012 16.003 13.4454 15.9909 13.8867C15.9818 14.2373 15.8549 14.5486 15.6071 14.7994C15.4348 14.9717 15.2232 15.0503 14.9724 15.0503C13.7181 15.0412 12.4578 15.0442 11.2006 15.0442ZM11.0676 12.7926C9.87076 12.7926 8.67696 12.7956 7.48013 12.7896C7.31693 12.7896 7.27462 12.838 7.28066 12.9951C7.29275 13.2218 7.28368 13.4515 7.28368 13.6812C7.28368 13.8958 7.28368 13.8958 7.49524 13.8958C9.65316 13.8958 11.8111 13.8958 13.969 13.8958C14.2078 13.8958 14.4465 13.8897 14.6853 13.8988C14.8183 13.9048 14.8545 13.8534 14.8515 13.7265C14.8424 13.4817 14.8394 13.2369 14.8515 12.9951C14.8606 12.841 14.8152 12.7896 14.652 12.7896C13.4612 12.7956 12.2644 12.7926 11.0676 12.7926Z" fill="white"/>
<path d="M6.27426 1.28677C6.27426 1.55273 6.27124 1.8187 6.27426 2.08164C6.27728 2.20253 6.24101 2.29924 6.1715 2.39898C4.86889 4.23653 3.56931 6.07408 2.26972 7.91466C2.23043 7.96906 2.20021 8.0295 2.16697 8.08995C2.05514 8.30453 1.81336 8.40427 1.60482 8.32266C1.38117 8.232 1.27237 7.99928 1.36304 7.75447C1.62295 7.0533 1.89194 6.35515 2.1579 5.65398C2.72911 4.1519 3.30033 2.64983 3.86549 1.14775C3.92292 0.996633 4.00754 0.896898 4.14959 0.818318C4.612 0.567468 5.06534 0.304529 5.52171 0.0415897C5.62749 -0.0188561 5.70909 -0.00676695 5.82394 0.0355451C6.20777 0.177593 6.35888 0.428443 6.28635 0.836452C6.25915 0.981522 6.28333 1.13868 6.28333 1.28677C6.27728 1.28677 6.27728 1.28677 6.27426 1.28677ZM5.58215 1.453C5.57913 1.22935 5.40082 1.05103 5.18623 1.05708C4.97467 1.06312 4.78427 1.25957 4.79031 1.46207C4.79636 1.68269 4.96863 1.84892 5.1953 1.84892C5.42197 1.84892 5.58518 1.68269 5.58215 1.453Z" fill="white"/>
<path d="M8.56508 8.61273C8.56206 8.84545 8.4865 8.95123 8.31423 9.01772C8.13893 9.08421 7.96364 9.0419 7.84879 8.90287C7.80648 8.8515 7.77324 8.79105 7.74301 8.7306C7.00558 7.26177 6.27116 5.79294 5.53372 4.32713C5.47932 4.2153 5.48234 4.14579 5.56999 4.05512C5.91453 3.69547 6.25 3.32373 6.59152 2.95803C6.70032 2.84016 6.71846 2.84318 6.76984 2.9943C7.34407 4.71398 7.92435 6.43064 8.4593 8.16544C8.50765 8.32864 8.55601 8.49184 8.56508 8.61273Z" fill="white"/>
<path d="M3.22782 12.6717C3.15831 12.8379 3.07066 13.0042 2.9679 13.1583C2.93768 13.2036 2.89235 13.1734 2.85608 13.1523C2.65963 13.0465 2.4662 12.9377 2.26976 12.8319C2.20024 12.7987 2.19118 12.7563 2.22442 12.6929C2.42087 12.3332 2.6143 11.9736 2.81075 11.6139C2.83492 11.5686 2.88026 11.5263 2.90444 11.6049C3.01626 11.9554 3.11902 12.309 3.22782 12.6717Z" fill="white"/>
</svg>
