<svg width="16" height="16" viewBox="0 0 16 16" fill="none" xmlns="http://www.w3.org/2000/svg">
<path d="M11.0709 0V0.866397C10.5655 0.952304 10.0856 1.14976 9.66605 1.44441L9.03019 0.846678L8.18299 1.75251L8.79914 2.32991C8.51797 2.74111 8.32747 3.20743 8.2403 3.6979H7.374V4.93033H8.2403C8.33025 5.44179 8.53235 5.90765 8.81824 6.31681L8.16328 6.95151L9.05052 7.83886L9.68515 7.18321C10.0943 7.46913 10.5601 7.67125 11.0715 7.76122V8.627H12.3038V7.7606C12.7941 7.6736 13.2604 7.4833 13.6716 7.20231L14.2483 7.81852L15.154 6.97061L14.5564 6.33591C14.846 5.92305 15.0431 5.44548 15.1343 4.92971H16V3.69728H15.1337C15.0452 3.19829 14.8479 2.72491 14.5558 2.3108L15.1337 1.73279L14.2668 0.866397L13.6895 1.44441C13.2754 1.15226 12.8021 0.954919 12.3031 0.866397V0H11.0709ZM11.687 2.04152C11.9859 2.03955 12.2822 2.09697 12.5588 2.21045C12.8353 2.32392 13.0866 2.49119 13.2979 2.70255C13.5093 2.91391 13.6766 3.16514 13.7902 3.44168C13.9037 3.71822 13.9612 4.01456 13.9593 4.3135C13.9593 5.57982 12.9532 6.5861 11.687 6.5861C10.4208 6.5861 9.41466 5.57982 9.41466 4.3135C9.41466 3.04718 10.4208 2.0409 11.687 2.0409V2.04152ZM3.69563 5.68026L2.56069 6.14242L3.00308 7.25777C2.41423 7.61028 1.91887 8.09936 1.55884 8.68369L0.462107 8.24002L0 9.37693L1.09673 9.81937C1.0102 10.1527 0.965089 10.4954 0.962415 10.8398C0.962415 11.1911 1.01479 11.5337 1.09673 11.8603L0 12.3039L0.462107 13.4396L1.55884 12.996C1.91566 13.5879 2.41139 14.0839 3.00308 14.441L2.55946 15.5378L3.69624 16L4.13986 14.9031C4.47316 14.9897 4.81586 15.0348 5.1602 15.0375C5.5114 15.0375 5.85521 14.9851 6.18053 14.9031L6.62415 16L7.7597 15.5378L7.31608 14.441C7.90095 14.0817 8.39014 13.5861 8.74184 12.9966L9.85706 13.439L10.3192 12.3033L9.20394 11.8597C9.28404 11.5331 9.33826 11.1898 9.33826 10.8392C9.33826 10.488 9.28466 10.1441 9.20271 9.81814L10.3198 9.3757L9.85767 8.23878L8.74245 8.68246C8.38841 8.09968 7.8994 7.61062 7.3167 7.25654L7.76032 6.14119L6.62354 5.67903L6.18176 6.79438C5.84801 6.70919 5.50525 6.6643 5.16081 6.66066C4.80961 6.66066 4.46704 6.71365 4.14048 6.79499L3.69686 5.67965L3.69563 5.68026ZM5.15958 7.8937C6.80037 7.8937 8.10474 9.20008 8.10474 10.8404C8.10598 12.4814 6.80037 13.8057 5.15958 13.8057C4.77009 13.8061 4.38433 13.7298 4.0244 13.5809C3.66446 13.4321 3.33742 13.2137 3.06201 12.9383C2.7866 12.6628 2.56823 12.3357 2.4194 11.9758C2.27057 11.6158 2.19421 11.23 2.1947 10.8404C2.1947 9.19946 3.51941 7.8937 5.15958 7.8937Z" fill="white"/>
</svg>
