<svg width="16" height="17" viewBox="0 0 16 17" fill="none" xmlns="http://www.w3.org/2000/svg">
<g clip-path="url(#clip0_2_2868)">
<path d="M5.26899 10.8025C5.07598 9.91985 4.94088 9.86229 4.40047 10.3612C4.11096 10.6298 3.87936 10.6873 3.62846 10.3612C3.31965 9.97741 3.03014 9.97741 2.72134 10.3612C2.48973 10.649 2.21953 10.7257 1.94932 10.3995C1.54402 9.86229 1.25451 10.0925 0.984306 10.553C0.829903 10.7833 0.714101 11.2054 0.443896 11.1287C0.11579 11.0711 0.212292 10.6106 0.15439 10.342C0.0578886 9.8431 0.0385883 9.34423 -1.24549e-05 8.84536C-0.0193128 8.46161 0.15439 8.38486 0.482497 8.53836C0.6562 8.6343 0.849203 8.69186 1.02291 8.80698C1.35101 9.01805 1.64052 8.99886 1.89142 8.67267C2.20023 8.26974 2.50903 8.34649 2.79854 8.71105C3.06875 9.01805 3.31965 8.99886 3.57055 8.69186C3.87936 8.28893 4.22677 8.23136 4.63207 8.55755C4.72858 8.6343 4.86368 8.74942 4.97948 8.59592C5.07598 8.4808 4.97948 8.34649 4.88298 8.25055C4.45837 7.79005 3.99516 7.75168 3.53195 8.15461C3.26175 8.40405 3.04945 8.40405 2.81784 8.13543C2.50903 7.73249 2.21953 7.71331 1.85282 8.11624C1.48612 8.49999 0.250892 8.28893 0.13509 7.77087C-0.0193128 7.04175 0.810603 6.84987 1.13871 6.37019C1.31241 6.10157 1.56332 6.06319 1.79492 6.33181C1.83352 6.38938 1.89142 6.42775 1.93002 6.46613C2.18093 6.71556 2.43183 6.77312 2.66344 6.48531C3.01084 6.06319 3.33895 6.08238 3.68636 6.5045C3.93726 6.8115 4.16887 6.71556 4.40047 6.46613C4.55487 6.31263 4.67068 6.10157 4.94088 6.13994C5.05668 6.15913 5.19179 6.33181 5.26899 6.12075C5.32689 5.96726 5.26899 5.81376 5.15318 5.69863C5.03738 5.58351 4.90228 5.48757 4.72858 5.58351C4.63207 5.66026 4.51627 5.73701 4.43907 5.83294C4.16887 6.15913 3.89866 6.1975 3.62846 5.85213C3.31965 5.46838 3.03014 5.46838 2.72134 5.85213C2.50903 6.10157 2.25813 6.25507 2.00723 5.92888C1.58262 5.39163 1.25451 5.58351 0.887804 6.00563C0.733401 6.17832 0.598299 6.38938 0.250892 6.46613C0.289493 5.54513 0.598299 4.75845 0.965006 3.97177C1.06151 3.74152 1.25451 3.83746 1.40891 3.95258C1.91072 4.35552 2.43183 4.6817 3.03014 4.12527C3.14595 4.02933 3.30035 4.06771 3.39685 4.16364C3.84076 4.54739 4.24607 4.47064 4.68998 4.12527C4.97948 3.91421 5.23039 4.18283 5.48129 4.25958C5.59709 4.31714 5.71289 4.35552 5.7708 4.22121C5.8287 4.12527 5.7901 4.01014 5.69359 3.95258C5.30759 3.72233 4.92158 3.37696 4.43907 3.7799C4.41977 3.7799 4.40047 3.79908 4.38117 3.79908C3.84076 4.27877 3.47405 3.35777 3.01084 3.6264C2.54764 3.91421 2.16163 4.04852 1.69842 3.64558C1.27381 3.28102 1.27381 2.87809 1.77562 2.7054C2.52834 2.45597 3.31965 2.03385 4.05306 2.1106C4.76718 2.18735 5.44269 2.47516 6.1568 2.1106C6.33051 2.03385 6.69721 2.43678 6.77442 2.14897C6.87092 1.78441 6.234 1.61172 6.1568 1.66929C5.28829 2.28328 4.38117 1.38148 3.51265 1.76522C3.16525 1.91872 2.77924 1.97628 2.43183 2.05303C2.39323 2.05303 2.35463 2.01466 2.23883 1.97628C3.12665 0.863418 4.22677 0.134298 5.63569 0.0575483C7.19902 -0.0383885 8.76235 -0.0383885 10.3257 0.0575483C12.1592 0.153485 13.4716 1.26635 14.3402 2.74378C16.5983 6.63881 16.6176 10.5914 14.2244 14.4481C13.1435 16.1366 11.5802 17.0767 9.49577 16.9808C8.29914 16.9424 7.12182 16.9616 5.9252 16.9808C4.94088 16.9808 4.07236 16.6354 3.28105 16.0598C3.10735 15.9447 2.74064 15.7912 2.93364 15.5417C3.16525 15.2539 3.51265 14.851 3.93726 15.1004C4.41977 15.3882 4.78648 15.465 5.23039 15.1004C5.46199 14.9086 5.69359 15.1004 5.8866 15.2348C6.1375 15.4074 6.36911 15.4842 6.62001 15.2731C6.73581 15.1772 6.98672 15.1196 6.87092 14.8894C6.77441 14.6975 6.60071 14.8318 6.46561 14.8702C6.33051 14.9278 6.1954 14.9469 6.0796 14.851C5.65499 14.4864 5.23039 14.4673 4.78648 14.8318C4.61277 14.9853 4.40047 14.8894 4.24607 14.7551C3.84076 14.3905 3.51265 14.5632 3.12665 14.8126C2.39323 15.3307 2.37393 15.3307 1.83352 14.6016C1.69842 14.4481 1.62122 14.2562 1.48612 14.1027C1.11941 13.6614 1.31241 13.3928 1.67912 13.0666C2.06513 12.7212 2.25813 12.9515 2.48973 13.2009C2.75994 13.5079 3.01084 13.4887 3.26175 13.1817C3.58986 12.7596 3.89866 12.8171 4.20747 13.2009C4.45837 13.5079 4.68998 13.4311 4.90228 13.1433C5.01808 12.9898 5.09528 12.798 5.34619 12.798C5.48129 12.798 5.65499 12.9898 5.7515 12.7788C5.8287 12.6061 5.67429 12.491 5.53919 12.4142C5.38479 12.3183 5.15318 12.1648 5.01808 12.3758C4.63207 12.9323 4.32327 12.798 3.93726 12.395C3.68636 12.1456 3.49335 12.395 3.33895 12.5677C3.04944 12.8939 2.75994 12.9515 2.47043 12.5869C2.18093 12.2415 1.93002 12.2415 1.60192 12.5869C1.42821 12.7404 1.23521 13.1817 0.945705 12.9131C0.6755 12.6636 0.463196 12.2415 0.6562 11.8386C0.829903 11.4932 1.08081 11.167 1.31241 10.8408C1.54402 10.5338 1.73702 10.7257 1.89142 10.9176C2.20023 11.2822 2.48973 11.2438 2.75994 10.8984C3.06875 10.5147 3.33895 10.6106 3.60916 10.9368C3.86006 11.2438 4.11096 11.2438 4.38117 10.956C4.61277 10.7257 4.84438 10.4187 5.26899 10.8025ZM15.228 8.90292C15.228 6.12075 14.5332 3.99096 13.2014 2.39841C11.3872 0.19186 9.18696 0.249422 7.48853 2.53272C7.39203 2.64784 7.31483 2.78215 7.23762 2.91647C5.848 5.31489 5.53919 7.90518 5.9831 10.5914C6.2533 12.2799 6.85162 13.8341 8.04824 15.1388C9.16766 16.3476 10.4222 16.5587 11.8504 15.7528C12.5452 15.3691 13.1049 14.8126 13.5681 14.1603C14.7648 12.4718 15.1894 10.553 15.228 8.90292Z" fill="white"/>
<path d="M13.9927 8.53844C13.9348 10.2845 13.6646 11.973 12.6416 13.4504C12.0626 14.2755 11.3292 14.8511 10.2677 14.7168C9.18688 14.5825 8.56927 13.7958 8.04816 12.9132C7.91305 12.6637 8.04816 12.491 8.16396 12.3184C9.66939 10.1694 9.70799 6.9267 8.22186 4.77772C8.00956 4.45153 7.99025 4.22129 8.18326 3.87591C9.39918 1.80368 11.4257 1.72693 12.7574 3.7416C13.7032 5.18065 13.9348 6.83077 13.9927 8.53844Z" fill="white"/>
<path d="M7.02539 8.53831C7.08329 7.52138 7.16049 6.48526 7.4886 5.50671C7.5465 5.33402 7.5465 5.0654 7.7781 5.04621C7.99041 5.02702 8.08691 5.27646 8.18341 5.42996C8.78172 6.46608 8.93613 7.61732 8.87822 8.76856C8.83962 9.7663 8.70452 10.7832 8.12551 11.6467C8.04831 11.8002 7.95181 12.0112 7.7588 11.992C7.5658 11.9728 7.5465 11.7426 7.4886 11.5699C7.17979 10.5914 7.08329 9.55524 7.02539 8.53831Z" fill="white"/>
</g>
<defs>
<clipPath id="clip0_2_2868">
<rect width="16" height="17" fill="white"/>
</clipPath>
</defs>
</svg>
