<svg width="12" height="15" viewBox="0 0 12 15" fill="none" xmlns="http://www.w3.org/2000/svg">
<path d="M11.8553 7.34283L4.21803 14.8419C4.13709 14.9211 4.03026 14.9739 3.91365 14.9926C3.79705 15.0112 3.67699 14.9946 3.5716 14.9452C3.46622 14.8958 3.38122 14.8163 3.32943 14.7188C3.27764 14.6213 3.26187 14.5109 3.28451 14.4045L4.28417 9.8219L0.354396 8.46957C0.269999 8.44064 0.194736 8.39299 0.135332 8.3309C0.0759273 8.26881 0.0342318 8.1942 0.01397 8.11373C-0.0062917 8.03327 -0.00448844 7.94945 0.0192185 7.86978C0.0429255 7.79011 0.0877977 7.71707 0.149827 7.65717L7.78708 0.158101C7.86801 0.0789453 7.97484 0.0260617 8.09144 0.00743011C8.20805 -0.0112015 8.32811 0.00542986 8.4335 0.0548145C8.53888 0.104199 8.62388 0.183657 8.67567 0.281199C8.72746 0.378741 8.74323 0.489073 8.72059 0.595546L7.7182 5.1831L11.648 6.53356C11.7318 6.56268 11.8064 6.61027 11.8654 6.67212C11.9243 6.73397 11.9657 6.80817 11.9859 6.88816C12.0061 6.96816 12.0046 7.05149 11.9813 7.13079C11.958 7.21009 11.9138 7.28291 11.8525 7.34283H11.8553Z" fill="white"/>
</svg>
