<svg width="16" height="11" viewBox="0 0 16 11" fill="none" xmlns="http://www.w3.org/2000/svg">
<path d="M15.8031 4.70801L14.2769 3.30001L12.9231 0.611128C12.8068 0.423383 12.6438 0.268533 12.4498 0.161498C12.2558 0.0544628 12.0373 -0.00114983 11.8154 1.80209e-05H4.18462C3.96268 -0.00114983 3.74418 0.0544628 3.55017 0.161498C3.35616 0.268533 3.19317 0.423383 3.07692 0.611128L1.72308 3.30001L0.196923 4.70801C0.134751 4.76527 0.0851657 4.83467 0.0512785 4.91186C0.0173913 4.98905 -6.65933e-05 5.07236 1.90887e-07 5.15657V10.3889C1.90887e-07 10.551 0.0648351 10.7064 0.180242 10.821C0.295649 10.9356 0.452175 11 0.615385 11H3.07692C3.32308 11 3.69231 10.7556 3.69231 10.5111V9.77778H12.3077V10.3889C12.3077 10.6333 12.5538 11 12.8 11H15.3846C15.5478 11 15.7044 10.9356 15.8198 10.821C15.9352 10.7064 16 10.551 16 10.3889V5.15657C16.0001 5.07236 15.9826 4.98905 15.9487 4.91186C15.9148 4.83467 15.8652 4.76527 15.8031 4.70801ZM4.30769 1.22224H11.6923L12.9231 3.66668H3.07692L4.30769 1.22224ZM4.92308 6.84445C4.92308 7.0889 4.55385 7.33334 4.30769 7.33334H1.72308C1.47692 7.33334 1.23077 6.96667 1.23077 6.72223V5.37779C1.35385 5.01112 1.6 4.76668 1.96923 4.8889L4.43077 5.37779C4.67692 5.37779 4.92308 5.74445 4.92308 5.9889V6.84445ZM14.7692 6.72223C14.7692 6.96667 14.5231 7.33334 14.2769 7.33334H11.6923C11.4462 7.33334 11.0769 7.0889 11.0769 6.84445V5.9889C11.0769 5.74445 11.3231 5.37779 11.5692 5.37779L14.0308 4.8889C14.4 4.76668 14.6462 5.01112 14.7692 5.37779V6.72223Z" fill="white"/>
</svg>
