<svg width="16" height="22" viewBox="0 0 16 22" fill="none" xmlns="http://www.w3.org/2000/svg">
<path d="M9.19774 3.35775H6.20713V9.65067C5.84671 9.83095 5.45377 9.98708 5.02829 10.1191C4.80371 10.1865 4.57604 10.2422 4.34613 10.2859V3.63733C4.34613 3.63733 4.39888 2.68308 3.8899 2.36042V2.24125H8.66678C8.88127 2.5135 9.07379 2.88017 9.19774 3.35775ZM10.0399 11.9662C12.2068 10.8827 13.2503 8.976 13.2696 6.79067C13.2828 5.30383 12.78 4.39083 12.2174 3.905C12.184 3.8765 12.1497 3.84929 12.1145 3.82342C11.9993 3.30624 11.8184 2.80744 11.5765 2.34025C11.6808 2.35614 11.7758 2.37356 11.8613 2.3925C13.4331 2.74083 14.6963 3.70883 15.2941 5.577C15.7811 7.1005 15.5446 8.99067 14.4994 10.5059C14.2524 10.8643 13.594 11.6298 12.838 12.1944C12.7008 12.2971 12.6182 12.3539 12.474 12.4483C13.4208 14.0305 13.8876 14.9389 14.4915 16.665C15.019 18.172 15.4189 20.1758 15.4734 20.647C15.6053 21.7681 15.9262 21.857 16 21.8799V22H12.2244V21.8808C12.3404 21.8167 13.361 21.3803 13.3663 19.7111C13.3716 18.4855 13.085 17.1371 12.5628 15.6227C12.2451 14.733 11.87 13.8666 11.4403 13.0295L11.4279 13.0103C11.1781 13.1237 10.9222 13.222 10.6614 13.3045C10.4654 12.8315 10.2658 12.4034 10.0399 11.9671V11.9662ZM6.20713 11.8342V12.8572C6.49283 12.8443 7.38509 12.7692 8.18856 12.606C8.37053 13.035 8.52876 13.442 8.63777 13.7583L8.65271 13.8023C8.2935 13.8619 7.93298 13.9127 7.57145 13.9544C7.11765 14.0056 6.66275 14.0457 6.20713 14.0745V20.6837C6.20713 20.8294 6.23966 21.6077 6.72578 21.8808V22H3.82748V21.8808C4.30042 21.6214 4.34613 20.8294 4.34613 20.6846V12.1871C4.97266 12.1062 5.5934 11.9884 6.20713 11.8342ZM6.60887 1.14583L6.20274 1.13942H2.428V10.8332C2.80248 10.8158 4.19757 10.6938 5.11093 10.4115C8.15691 9.47192 9.61178 7.25175 9.63463 4.64292C9.64782 3.12583 9.13532 2.19358 8.56041 1.69858C8.20263 1.38967 7.72881 1.24392 7.38421 1.19075C7.19081 1.15042 6.76007 1.14492 6.60887 1.14492V1.14583ZM0.529202 18.8439V1.4245C0.529202 1.4245 0.583704 0.451 0.063293 0.121917V0H6.52096C7.05983 0.000916667 7.76485 0.05775 8.19735 0.155833C9.80078 0.510583 11.0904 1.49783 11.7005 3.4045C12.1971 4.95917 11.9563 6.88783 10.89 8.43425C10.6377 8.80092 9.96692 9.58008 9.19334 10.1576C9.07271 10.2481 8.94897 10.334 8.82237 10.4152C9.78935 12.0303 10.2649 12.9571 10.882 14.7189C11.42 16.2562 11.8279 18.3022 11.8842 18.7816C12.0169 19.9256 12.3457 20.0411 12.4204 20.0649V20.1859H8.56832L8.56744 20.064C8.687 19.998 9.72782 19.5296 9.73309 17.8255C9.73925 16.5761 9.44651 15.1993 8.9138 13.6547C8.59019 12.7461 8.20688 11.8618 7.76661 11.0083L7.7543 10.9881C7.24268 11.231 6.16142 11.5601 5.45992 11.6985C4.95797 11.7975 4.44899 11.8791 3.82045 11.9524C3.27279 12.0166 2.74183 12.0542 2.428 12.0753V18.8439C2.428 18.9915 2.4614 19.7863 2.95808 20.0649V20.1859H0V20.0649C0.482611 19.7991 0.529202 18.9924 0.529202 18.8439Z" fill="white"/>
</svg>
