<svg width="16" height="14" viewBox="0 0 16 14" fill="none" xmlns="http://www.w3.org/2000/svg">
<path d="M10.8978 3.97823C11.9863 3.97823 13.0716 3.97502 14.1601 3.97823C15.0238 3.98144 15.7302 4.54336 15.9421 5.37819C15.9839 5.54195 15.9999 5.71213 15.9999 5.88231C15.9999 7.28227 15.9999 8.67902 15.9999 10.079C15.9999 11.1964 15.2133 11.983 14.0991 11.983C13.8261 11.983 13.8261 11.983 13.8261 12.2592C13.8261 12.5417 13.8261 12.8243 13.8261 13.1069C13.8261 13.367 13.7234 13.5757 13.4729 13.6752C13.2289 13.7715 13.0106 13.7105 12.8243 13.5211C12.3555 13.0459 11.8771 12.5771 11.4083 12.1019C11.3216 12.0152 11.2317 11.9798 11.1097 11.9798C9.9602 11.9831 8.81069 11.983 7.66118 11.983C6.61442 11.983 5.82133 11.19 5.81812 10.1464C5.81812 8.70149 5.81812 7.25979 5.81812 5.81488C5.81812 4.79702 6.61442 3.99429 7.63549 3.98144C8.17814 3.97502 8.72399 3.98144 9.26664 3.97823C9.80928 3.97823 10.3519 3.97823 10.8978 3.97823ZM10.3616 7.41391C10.3616 7.41713 10.3616 7.41713 10.3616 7.41391C10.7822 7.41713 11.1996 7.41713 11.6202 7.41391C11.7519 7.41391 11.8097 7.45245 11.7776 7.59694C11.662 8.10747 11.4212 8.54737 11.0487 8.91662C10.9363 9.02901 10.8593 9.01295 10.7565 8.90699C10.551 8.69507 10.3776 8.46067 10.2395 8.19417C10.1272 7.97904 9.95056 7.91161 9.76433 8.00151C9.5781 8.09142 9.52351 8.29371 9.63268 8.51205C9.77396 8.79782 9.95378 9.06112 10.1818 9.28267C10.2877 9.38542 10.2684 9.43358 10.1368 9.47532C9.85424 9.56844 9.56847 9.62303 9.27306 9.63266C9.05151 9.63908 8.92949 9.76752 8.9327 9.9698C8.93591 10.201 9.12215 10.3391 9.39829 10.3198C9.89598 10.2845 10.3712 10.1689 10.8111 9.92806C10.8817 9.88953 10.9459 9.88311 11.0198 9.92164C11.4661 10.1592 11.9445 10.2845 12.4487 10.3134C12.6991 10.3294 12.8789 10.217 12.895 10.0083C12.911 9.78678 12.7569 9.63908 12.4968 9.62624C12.2239 9.61339 11.9574 9.56844 11.7005 9.47532C11.5881 9.43358 11.5368 9.39826 11.6459 9.28267C12.0826 8.81709 12.3684 8.26802 12.4679 7.63868C12.4968 7.46208 12.5643 7.40428 12.7376 7.40107C12.9849 7.39465 13.1262 7.16667 13.0427 6.94833C12.9785 6.791 12.8532 6.7332 12.6895 6.7332C12.2753 6.7332 11.8643 6.72999 11.4501 6.7332C11.312 6.73641 11.2542 6.68825 11.2606 6.54697C11.2703 6.36716 11.2703 6.18413 11.2574 6.00432C11.2446 5.77956 11.1033 5.6447 10.9042 5.64791C10.7051 5.65112 10.5735 5.7924 10.5703 6.01717C10.5671 6.18092 10.5606 6.34789 10.5703 6.50844C10.5831 6.67861 10.5189 6.73641 10.3487 6.7332C9.94735 6.72357 9.54599 6.72999 9.14141 6.72999C9.03545 6.72999 8.93913 6.74283 8.85885 6.82311C8.74968 6.93228 8.73363 7.06714 8.785 7.19878C8.83959 7.34006 8.95518 7.40428 9.10609 7.40107C9.52351 7.41391 9.94093 7.41391 10.3616 7.41391Z" fill="white"/>
<path d="M5.09894 0C6.18744 0 7.27273 0 8.36123 0C9.39514 0 10.1882 0.799518 10.1915 1.83022C10.1915 2.24443 10.1818 2.65864 10.1947 3.06964C10.2011 3.24624 10.1369 3.28798 9.9699 3.28798C9.25065 3.28156 8.53141 3.28477 7.81216 3.28477C7.28236 3.28156 6.77503 3.37788 6.3223 3.67329C6.19386 3.75677 6.15854 3.67971 6.11359 3.58017C5.88882 3.08569 5.66406 2.59121 5.43929 2.09673C5.37186 1.94903 5.27233 1.85591 5.10536 1.8527C4.93518 1.84949 4.83564 1.94582 4.76821 2.09031C4.1774 3.38752 3.58659 4.68794 2.99579 5.98515C2.93157 6.12643 2.92836 6.25808 3.02789 6.3833C3.11459 6.49247 3.2366 6.51174 3.36825 6.49247C3.50953 6.47321 3.58017 6.37367 3.63155 6.25487C3.77604 5.93377 3.93016 5.6191 4.06181 5.2948C4.13566 5.11178 4.24162 5.04756 4.43428 5.06362C4.64941 5.07967 4.86454 5.06683 5.07967 5.06683C5.16315 5.06683 5.23058 5.07967 5.19847 5.19205C5.09251 5.58057 5.12462 5.97873 5.12141 6.37367C5.1182 6.84889 5.11499 7.3241 5.12462 7.79932C5.12783 7.95023 5.08288 8.02729 4.92234 8.00482C4.765 7.98234 4.65904 8.05619 4.55308 8.16215C4.10997 8.61489 3.65723 9.06121 3.21092 9.51074C3.02147 9.70339 2.80313 9.80614 2.53662 9.69376C2.26691 9.58138 2.17379 9.35982 2.18021 9.07726C2.18663 8.78186 2.17379 8.48967 2.18342 8.19426C2.18985 8.04335 2.13847 7.99518 1.99077 8.00161C1.52197 8.02087 1.09171 7.90849 0.719245 7.61308C0.263295 7.25346 0.0160546 6.78146 0.00963275 6.2067C-0.00321092 4.72968 -0.00321092 3.25266 0.00963275 1.77243C0.0256873 0.796307 0.847682 0.00321092 1.82059 0C2.91551 0 4.00722 0 5.09894 0Z" fill="white"/>
<path d="M5.05716 4.37327C4.9223 4.37327 4.78745 4.37006 4.64938 4.37327C4.54342 4.37648 4.49846 4.34758 4.54984 4.2352C4.71681 3.87557 4.87735 3.51595 5.04111 3.15633C5.07964 3.06963 5.12459 3.06963 5.16312 3.15633C5.31725 3.49669 5.47458 3.83383 5.6255 4.17419C5.67687 4.28978 5.61907 4.36363 5.49706 4.37006C5.34936 4.37648 5.20487 4.37006 5.05716 4.37327Z" fill="white"/>
</svg>
