<svg width="17" height="10" viewBox="0 0 17 10" fill="none" xmlns="http://www.w3.org/2000/svg">
<g clip-path="url(#clip0_2_2880)">
<path d="M8.06577 0C11.0394 0 14.0164 0 16.9901 0C16.9934 0.0464286 16.9968 0.0928571 16.9968 0.139286C16.9968 2.25 16.9968 4.36071 16.9968 6.46786C16.9968 6.49286 16.9934 6.51786 16.9968 6.54286C17.0001 6.60714 16.9734 6.63214 16.9166 6.63214C16.8264 6.63214 16.7362 6.63214 16.6493 6.63214C16.529 6.63214 16.5257 6.63571 16.5257 6.76071C16.5257 7.31786 16.5257 7.87857 16.5257 8.43571C16.5257 8.575 16.5257 8.575 16.3954 8.575C15.8675 8.575 15.3396 8.575 14.8083 8.575C14.6112 8.575 14.6112 8.575 14.5878 8.36786C14.5878 8.36071 14.5878 8.35714 14.5844 8.35C14.4642 7.475 13.8026 6.875 12.9807 6.88929C12.1654 6.90357 11.4872 7.6 11.4471 8.47143C11.4437 8.55 11.417 8.57857 11.3435 8.57857C10.281 8.575 9.21848 8.575 8.15598 8.57857C8.08582 8.57857 8.05575 8.55357 8.05909 8.475C8.06243 8.30714 8.06243 8.14286 8.06243 7.975C8.06243 5.375 8.06243 2.775 8.06243 0.175C8.06577 0.117857 8.06577 0.0571429 8.06577 0ZM15.8741 7.11786C15.8741 7.25 15.8775 7.38214 15.8741 7.51429C15.8708 7.59643 15.9209 7.6 15.9777 7.6C16.0345 7.6 16.0913 7.60714 16.088 7.51429C16.0846 7.25 16.0846 6.98571 16.088 6.72143C16.088 6.63571 16.0412 6.63214 15.9811 6.63214C15.9209 6.63214 15.8708 6.63214 15.8741 6.72143C15.8741 6.85357 15.8741 6.98571 15.8741 7.11786Z" fill="white"/>
<path d="M7.91863 5.34293C7.91863 6.3715 7.91863 7.40364 7.91863 8.43221C7.91863 8.57507 7.91863 8.57507 7.78498 8.57507C6.70244 8.57507 5.61989 8.57507 4.53734 8.57507C4.41372 8.57507 4.41372 8.57507 4.4037 8.43936C4.34021 7.56436 3.66195 6.88936 2.84002 6.88578C2.04815 6.88221 1.3866 7.48578 1.26631 8.32507C1.25963 8.38221 1.25629 8.44293 1.25295 8.50007C1.24961 8.55364 1.22622 8.57507 1.1761 8.57507C0.808569 8.57507 0.441038 8.57507 0.0768475 8.57507C0.0267296 8.57864 0 8.55721 0 8.50007C0 7.8215 0.0400943 7.1465 0.227201 6.48936C0.253931 6.3965 0.287343 6.31078 0.327437 6.22507C0.400943 6.06793 0.507862 5.94293 0.658215 5.86078C1.18278 5.5715 1.73742 5.36793 2.31211 5.23936C2.5794 5.17864 2.75649 5.05007 2.91352 4.81436C3.36124 4.14293 3.85908 3.51436 4.4204 2.9465C4.69438 2.6715 4.98506 2.41793 5.32252 2.23578C5.50295 2.13936 5.6934 2.08936 5.89721 2.08936C6.52535 2.09293 7.15016 2.08936 7.7783 2.08936C7.91195 2.08936 7.91195 2.09293 7.91195 2.23578C7.91529 3.2715 7.91529 4.30721 7.91863 5.34293ZM5.4662 4.86793C6.10436 4.86793 6.74253 4.86793 7.3807 4.86793C7.49764 4.86793 7.50432 4.86078 7.50432 4.73936C7.50432 4.05007 7.50432 3.35721 7.50432 2.66793C7.50432 2.5465 7.50098 2.54293 7.38738 2.54293C6.83609 2.54293 6.28479 2.54293 5.73349 2.54293C5.6934 2.54293 5.6533 2.5465 5.61321 2.55364C5.36596 2.60721 5.16883 2.75721 4.98172 2.9215C4.38365 3.45721 3.91588 4.11793 3.46482 4.78578C3.42807 4.83936 3.44143 4.86436 3.50157 4.86436C3.5283 4.86436 3.55503 4.86436 3.57842 4.86436C4.20991 4.86793 4.83805 4.86793 5.4662 4.86793ZM0.92217 6.22507C0.835299 6.22507 0.748428 6.22507 0.661557 6.22507C0.608097 6.22507 0.581368 6.2465 0.581368 6.30721C0.581368 6.3965 0.581368 6.48578 0.581368 6.57507C0.581368 6.63221 0.601415 6.66078 0.658215 6.66078C0.831958 6.66078 1.0057 6.66078 1.1761 6.66078C1.22622 6.66078 1.24627 6.63221 1.24627 6.57864C1.24627 6.48936 1.24292 6.40007 1.24627 6.31078C1.24627 6.2465 1.21954 6.2215 1.16274 6.22507C1.08589 6.22507 1.00236 6.22507 0.92217 6.22507Z" fill="white"/>
<path d="M1.49023 8.57155C1.49023 7.78226 2.08831 7.1394 2.82671 7.1394C3.56178 7.1394 4.16987 7.7894 4.16653 8.57155C4.16319 9.35726 3.55843 10.0001 2.82337 10.0001C2.09165 10.0001 1.49358 9.35726 1.49023 8.57155ZM2.82337 9.12512C3.1174 9.12512 3.3446 8.88583 3.34794 8.57155C3.34794 8.25726 3.12408 8.0144 2.83005 8.0144C2.53937 8.0144 2.30549 8.25726 2.30214 8.56798C2.30214 8.87512 2.53269 9.12512 2.82337 9.12512Z" fill="white"/>
<path d="M14.3638 8.57132C14.3638 9.35703 13.7557 10.0035 13.024 9.99989C12.2889 9.99989 11.6842 9.34632 11.6875 8.56417C11.6909 7.77846 12.299 7.1356 13.034 7.13917C13.7624 7.14275 14.3638 7.78918 14.3638 8.57132ZM12.5061 8.57132C12.5061 8.8856 12.73 9.12489 13.0273 9.12489C13.3214 9.12489 13.5519 8.88203 13.5519 8.57132C13.5519 8.2606 13.3214 8.01775 13.0273 8.01775C12.73 8.01418 12.5061 8.25346 12.5061 8.57132Z" fill="white"/>
<path d="M7.92536 9.18572C6.77265 9.18572 5.61994 9.18572 4.46723 9.18572C4.44718 9.18572 4.42713 9.18572 4.40708 9.18572C4.30017 9.18572 4.29683 9.18215 4.33024 9.06787C4.35697 8.97144 4.37701 8.87858 4.38704 8.77858C4.39372 8.71072 4.42045 8.68572 4.48059 8.6893C4.50732 8.69287 4.53405 8.6893 4.55744 8.6893C6.80606 8.6893 9.05135 8.6893 11.3 8.6893C11.3334 8.6893 11.3635 8.6893 11.3969 8.6893C11.4436 8.6893 11.467 8.7143 11.4704 8.76073C11.4804 8.87858 11.5071 8.99287 11.5405 9.10358C11.5572 9.16072 11.5372 9.18572 11.4804 9.18215C11.4503 9.18215 11.4169 9.18215 11.3835 9.18215C10.2308 9.18572 9.07807 9.18572 7.92536 9.18572Z" fill="white"/>
<path d="M6.86614 1.89638C6.55207 1.89638 6.238 1.89638 5.92392 1.89638C5.89385 1.89638 5.85376 1.91424 5.83705 1.87496C5.82369 1.84281 5.8571 1.81424 5.87715 1.78924C6.11103 1.47138 6.39503 1.21067 6.70242 0.978527C7.04991 0.714241 7.42412 0.489241 7.8117 0.299955C7.91194 0.249955 7.91862 0.253526 7.91862 0.367812C7.91862 0.839241 7.91528 1.31067 7.92196 1.7821C7.92196 1.87138 7.89523 1.89638 7.8117 1.89638C7.49429 1.89281 7.18021 1.89638 6.86614 1.89638Z" fill="white"/>
<path d="M15.5935 9.1893C15.266 9.1893 14.9419 9.1893 14.6145 9.1893C14.4942 9.1893 14.4909 9.18573 14.5243 9.06787C14.5477 8.97859 14.5711 8.8893 14.5778 8.79644C14.5811 8.72859 14.6078 8.69287 14.6813 8.69287C15.3195 8.69644 15.9577 8.69644 16.5925 8.69287C16.6627 8.69287 16.6894 8.72144 16.686 8.79644C16.6827 8.89287 16.6827 8.9893 16.686 9.08216C16.6894 9.1643 16.6627 9.1893 16.5858 9.1893C16.2584 9.18573 15.9243 9.1893 15.5935 9.1893Z" fill="white"/>
<path d="M0.678295 9.18573C0.481165 9.18573 0.287375 9.18573 0.0902449 9.18573C0.023421 9.18573 -0.0033086 9.16073 3.2597e-05 9.0893C0.00337379 8.98573 0.00337379 8.87859 3.2597e-05 8.77501C3.2597e-05 8.71787 0.0200798 8.69287 0.0768801 8.69287C0.447753 8.69287 0.821967 8.69287 1.19284 8.69287C1.2463 8.69287 1.263 8.72144 1.26969 8.77144C1.28305 8.88573 1.3031 9.00359 1.33985 9.1143C1.3599 9.17859 1.32315 9.1893 1.27637 9.1893C1.07924 9.18573 0.878767 9.18573 0.678295 9.18573Z" fill="white"/>
</g>
<defs>
<clipPath id="clip0_2_2880">
<rect width="17" height="10" fill="white"/>
</clipPath>
</defs>
</svg>
