<svg width="18" height="12" viewBox="0 0 18 12" fill="none" xmlns="http://www.w3.org/2000/svg">
<path d="M4.2 4.19995H12.6L9.4 7.39995H5.4L8.6 4.19995M1 8.99995C1 9.63647 1.25286 10.2469 1.70294 10.697C2.15303 11.1471 2.76348 11.4 3.4 11.4C4.03652 11.4 4.64697 11.1471 5.09706 10.697C5.54714 10.2469 5.8 9.63647 5.8 8.99995C5.8 8.36343 5.54714 7.75298 5.09706 7.30289C4.64697 6.85281 4.03652 6.59995 3.4 6.59995C2.76348 6.59995 2.15303 6.85281 1.70294 7.30289C1.25286 7.75298 1 8.36343 1 8.99995ZM12.2 8.99995C12.2 9.63647 12.4529 10.2469 12.9029 10.697C13.353 11.1471 13.9635 11.4 14.6 11.4C15.2365 11.4 15.847 11.1471 16.2971 10.697C16.7471 10.2469 17 9.63647 17 8.99995C17 8.36343 16.7471 7.75298 16.2971 7.30289C15.847 6.85281 15.2365 6.59995 14.6 6.59995C13.9635 6.59995 13.353 6.85281 12.9029 7.30289C12.4529 7.75298 12.2 8.36343 12.2 8.99995Z" stroke="white" stroke-linecap="round" stroke-linejoin="round"/>
<path d="M9.80005 1H11.4L12.6 3.4L14.2 6.6" stroke="white" stroke-linecap="round" stroke-linejoin="round"/>
</svg>
