<svg width="16" height="15" viewBox="0 0 16 15" fill="none" xmlns="http://www.w3.org/2000/svg">
<g clip-path="url(#clip0_2_2864)">
<path d="M16.0002 7.26829C15.9096 9.46785 15.3976 11.3504 13.8729 12.6487C12.5009 13.8201 10.8828 14.749 8.95631 14.953C7.03269 15.1569 5.32972 14.6718 3.65504 13.7457C1.35518 12.4723 0.254758 10.5428 0.0369364 8.08416C-0.161083 5.86531 0.44712 3.776 2.15009 2.30688C3.58149 1.07479 5.29295 0.118342 7.35235 0.0108445C9.38913 -0.0966527 11.0949 0.570381 12.8177 1.59574C15.1628 2.99596 15.7229 5.13488 16.0002 7.26829ZM13.6409 6.21261C13.126 4.75726 12.4443 3.28813 10.9959 2.45021C8.00582 0.719224 4.70172 1.68119 3.0044 4.66079C2.76395 5.08527 2.53764 5.51525 2.41883 5.9921C2.27739 6.56818 2.47824 6.88791 3.08927 6.94028C3.58149 6.98163 4.08503 6.98714 4.58008 6.95682C5.16848 6.92099 5.43156 7.09188 5.43722 7.72308C5.44571 8.66024 5.9549 9.3824 6.83467 9.73521C7.38913 9.95847 7.67767 10.2617 7.73142 10.8267C7.74556 10.9866 7.74274 11.2291 7.9945 11.2181C8.23496 11.2071 8.20384 10.9673 8.24344 10.8074C8.33962 10.4022 8.39054 10.0246 8.90539 9.83719C9.96056 9.45406 10.5292 8.66851 10.5461 7.56322C10.5518 7.08637 10.7724 6.95406 11.2109 6.96233C11.7512 6.97336 12.2972 6.97611 12.8375 6.94304C13.2364 6.91548 13.573 6.74734 13.6409 6.21261ZM0.540472 7.30136C0.529157 9.20048 1.10059 10.722 2.18969 12.0616C2.33962 12.2435 2.50935 12.5853 2.82336 12.2573C3.05532 12.0119 3.51926 11.8218 3.10907 11.3504C1.24486 9.20324 1.1996 5.89012 3.08078 3.66851C3.46551 3.21371 3.11756 3.00423 2.85448 2.74789C2.49804 2.40059 2.33114 2.75892 2.16989 2.96013C1.10341 4.28593 0.523499 5.78262 0.540472 7.30136ZM15.4287 7.24072C15.4287 5.82948 14.8969 4.28317 13.8531 3.02628C13.689 2.82782 13.5419 2.37854 13.1317 2.74513C12.8375 3.00699 12.5376 3.21647 12.9167 3.71536C14.7781 6.16575 14.7724 8.88626 12.9054 11.2815C12.5207 11.7749 12.8375 11.9871 13.1289 12.2545C13.4938 12.5935 13.655 12.2159 13.8135 12.0202C14.8799 10.6999 15.4485 9.19772 15.4287 7.24072ZM4.33962 8.98273C4.07088 8.99927 3.79931 9.00754 3.53057 9.0351C3.42025 9.04613 3.30992 9.09023 3.21374 9.14535C2.90822 9.32176 2.60554 9.55329 2.81204 9.93367C3.58715 11.3697 4.45278 12.7231 6.2491 13.1228C6.60271 13.2027 6.77244 13.1806 6.6508 12.7589C6.3962 11.8907 6.17838 11.0142 5.92661 10.1487C5.65787 9.22529 5.32689 8.99376 4.33962 8.98273ZM11.6494 9.00754C10.5772 8.99376 10.3283 9.17016 10.0341 10.1762C9.8078 10.959 9.58432 11.7446 9.38347 12.5329C9.33538 12.7286 9.12605 12.9849 9.35235 13.1393C9.53623 13.2661 9.77951 13.0814 9.9945 13.0263C11.4768 12.6431 12.2406 11.4965 12.962 10.3278C13.3976 9.62496 13.1034 9.10401 12.2576 9.01305C12.0596 8.98824 11.8531 9.00754 11.6494 9.00754Z" fill="white"/>
<path d="M10.1669 7.54667C10.1556 8.64645 9.1061 9.63873 7.96607 9.63047C6.7921 9.6222 5.76523 8.58857 5.79634 7.45296C5.82746 6.31735 6.82888 5.36365 7.98871 5.36916C9.14571 5.37192 10.1782 6.40279 10.1669 7.54667Z" fill="white"/>
</g>
<defs>
<clipPath id="clip0_2_2864">
<rect width="16" height="15" fill="white"/>
</clipPath>
</defs>
</svg>
